<svg width="210" height="33" viewBox="0 0 210 33" fill="none" xmlns="http://www.w3.org/2000/svg">
<path d="M192.113 1.14794L188.17 9.68048L179.347 11.0532C177.765 11.2981 177.131 13.3796 178.278 14.5719L184.661 21.2097L183.151 30.5865C182.88 32.2814 184.552 33.551 185.953 32.7583L193.846 28.3309L201.739 32.7583C203.14 33.5445 204.813 32.2814 204.541 30.5865L203.031 21.2097L209.414 14.5719C210.562 13.3796 209.928 11.2981 208.345 11.0532L199.523 9.68048L195.579 1.14794C194.873 -0.372965 192.826 -0.392298 192.113 1.14794Z" fill="#FF9CCE"/>
<path d="M147.69 1.14794L143.747 9.68048L134.924 11.0532C133.342 11.2981 132.708 13.3796 133.855 14.5719L140.238 21.2097L138.728 30.5865C138.457 32.2814 140.129 33.551 141.53 32.7583L149.423 28.3309L157.316 32.7583C158.717 33.5445 160.39 32.2814 160.118 30.5865L158.608 21.2097L164.991 14.5719C166.139 13.3796 165.504 11.2981 163.922 11.0532L155.1 9.68048L151.156 1.14794C150.45 -0.372965 148.403 -0.392298 147.69 1.14794Z" fill="#E54F9B"/>
<path d="M103.267 1.14794L99.3235 9.68048L90.5008 11.0532C88.9186 11.2981 88.2845 13.3796 89.4319 14.5719L95.8149 21.2097L94.3052 30.5865C94.0335 32.2814 95.7062 33.551 97.1073 32.7583L105 28.3309L112.893 32.7583C114.294 33.5445 115.966 32.2814 115.695 30.5865L114.185 21.2097L120.568 14.5719C121.715 13.3796 121.081 11.2981 119.499 11.0532L110.676 9.68048L106.733 1.14794C106.027 -0.372965 103.979 -0.392298 103.267 1.14794Z" fill="#E54F9B"/>
<path d="M58.8438 1.14794L54.9005 9.68048L46.0778 11.0532C44.4956 11.2981 43.8615 13.3796 45.0089 14.5719L51.3919 21.2097L49.8822 30.5865C49.6105 32.2814 51.2832 33.551 52.6842 32.7583L60.5769 28.3309L68.4697 32.7583C69.8707 33.5445 71.5434 32.2814 71.2717 30.5865L69.762 21.2097L76.145 14.5719C77.2924 13.3796 76.6583 11.2981 75.0761 11.0532L66.2534 9.68048L62.3101 1.14794C61.6035 -0.372965 59.5564 -0.392298 58.8438 1.14794Z" fill="#E54F9B"/>
<path d="M14.4207 1.14794L10.4774 9.68048L1.65466 11.0532C0.0724945 11.2981 -0.561581 13.3796 0.585793 14.5719L6.96882 21.2097L5.45911 30.5865C5.18737 32.2814 6.86012 33.551 8.26112 32.7583L16.1538 28.3309L24.0466 32.7583C25.4476 33.5445 27.1203 32.2814 26.8486 30.5865L25.3389 21.2097L31.7219 14.5719C32.8693 13.3796 32.2352 11.2981 30.653 11.0532L21.8303 9.68048L17.887 1.14794C17.1804 -0.372965 15.1333 -0.392298 14.4207 1.14794Z" fill="#E54F9B"/>
</svg>
